Results
version=1
nRows=4
nColumns=171
inDegrees=yes
endheader
time	/jointset/ground_pelvis/pelvis_tilt/value	/jointset/ground_pelvis/pelvis_tilt/speed	/jointset/ground_pelvis/pelvis_list/value	/jointset/ground_pelvis/pelvis_list/speed	/jointset/ground_pelvis/pelvis_rotation/value	/jointset/ground_pelvis/pelvis_rotation/speed	/jointset/ground_pelvis/pelvis_tx/value	/jointset/ground_pelvis/pelvis_tx/speed	/jointset/ground_pelvis/pelvis_ty/value	/jointset/ground_pelvis/pelvis_ty/speed	/jointset/ground_pelvis/pelvis_tz/value	/jointset/ground_pelvis/pelvis_tz/speed	/jointset/hip_r/hip_flexion_r/value	/jointset/hip_r/hip_flexion_r/speed	/jointset/hip_r/hip_adduction_r/value	/jointset/hip_r/hip_adduction_r/speed	/jointset/hip_r/hip_rotation_r/value	/jointset/hip_r/hip_rotation_r/speed	/jointset/walker_knee_r/knee_angle_r/value	/jointset/walker_knee_r/knee_angle_r/speed	/jointset/patellofemoral_r/knee_angle_r_beta/value	/jointset/patellofemoral_r/knee_angle_r_beta/speed	/jointset/ankle_r/ankle_angle_r/value	/jointset/ankle_r/ankle_angle_r/speed	/jointset/subtalar_r/subtalar_angle_r/value	/jointset/subtalar_r/subtalar_angle_r/speed	/jointset/mtp_r/mtp_angle_r/value	/jointset/mtp_r/mtp_angle_r/speed	/jointset/hip_l/hip_flexion_l/value	/jointset/hip_l/hip_flexion_l/speed	/jointset/hip_l/hip_adduction_l/value	/jointset/hip_l/hip_adduction_l/speed	/jointset/hip_l/hip_rotation_l/value	/jointset/hip_l/hip_rotation_l/speed	/jointset/walker_knee_l/knee_angle_l/value	/jointset/walker_knee_l/knee_angle_l/speed	/jointset/patellofemoral_l/knee_angle_l_beta/value	/jointset/patellofemoral_l/knee_angle_l_beta/speed	/jointset/ankle_l/ankle_angle_l/value	/jointset/ankle_l/ankle_angle_l/speed	/jointset/subtalar_l/subtalar_angle_l/value	/jointset/subtalar_l/subtalar_angle_l/speed	/jointset/mtp_l/mtp_angle_l/value	/jointset/mtp_l/mtp_angle_l/speed	/forceset/addbrev_r/activation	/forceset/addlong_r/activation	/forceset/addlong_r/fiber_length	/forceset/addmagDist_r/activation	/forceset/addmagIsch_r/activation	/forceset/addmagIsch_r/fiber_length	/forceset/addmagMid_r/activation	/forceset/addmagProx_r/activation	/forceset/bflh140_r/activation	/forceset/bflh140_r/fiber_length	/forceset/bfsh140_r/activation	/forceset/edl_r/activation	/forceset/edl_r/fiber_length	/forceset/ehl_r/activation	/forceset/ehl_r/fiber_length	/forceset/fdl_r/activation	/forceset/fdl_r/fiber_length	/forceset/fhl_r/activation	/forceset/fhl_r/fiber_length	/forceset/gaslat140_r/activation	/forceset/gaslat140_r/fiber_length	/forceset/gasmed_r/activation	/forceset/gasmed_r/fiber_length	/forceset/glmax1_r/activation	/forceset/glmax2_r/activation	/forceset/glmax3_r/activation	/forceset/glmed1_r/activation	/forceset/glmed2_r/activation	/forceset/glmed3_r/activation	/forceset/glmin1_r/activation	/forceset/glmin2_r/activation	/forceset/glmin3_r/activation	/forceset/glmin3_r/fiber_length	/forceset/grac_r/activation	/forceset/iliacus_r/activation	/forceset/perbrev_r/activation	/forceset/perbrev_r/fiber_length	/forceset/perlong_r/activation	/forceset/perlong_r/fiber_length	/forceset/piri_r/activation	/forceset/piri_r/fiber_length	/forceset/psoas_r/activation	/forceset/recfem_r/activation	/forceset/recfem_r/fiber_length	/forceset/sart_r/activation	/forceset/semimem_r/activation	/forceset/semimem_r/fiber_length	/forceset/semiten_r/activation	/forceset/semiten_r/fiber_length	/forceset/soleus_r/activation	/forceset/soleus_r/fiber_length	/forceset/tfl_r/activation	/forceset/tfl_r/fiber_length	/forceset/tibant_r/activation	/forceset/tibant_r/fiber_length	/forceset/tibpost_r/activation	/forceset/tibpost_r/fiber_length	/forceset/vasint_r/activation	/forceset/vasint_r/fiber_length	/forceset/vaslat140_r/activation	/forceset/vaslat140_r/fiber_length	/forceset/vasmed_r/activation	/forceset/vasmed_r/fiber_length	/forceset/addbrev_l/activation	/forceset/addlong_l/activation	/forceset/addlong_l/fiber_length	/forceset/addmagDist_l/activation	/forceset/addmagIsch_l/activation	/forceset/addmagIsch_l/fiber_length	/forceset/addmagMid_l/activation	/forceset/addmagProx_l/activation	/forceset/bflh140_l/activation	/forceset/bflh140_l/fiber_length	/forceset/bfsh140_l/activation	/forceset/edl_l/activation	/forceset/edl_l/fiber_length	/forceset/ehl_l/activation	/forceset/ehl_l/fiber_length	/forceset/fdl_l/activation	/forceset/fdl_l/fiber_length	/forceset/fhl_l/activation	/forceset/fhl_l/fiber_length	/forceset/gaslat140_l/activation	/forceset/gaslat140_l/fiber_length	/forceset/gasmed_l/activation	/forceset/gasmed_l/fiber_length	/forceset/glmax1_l/activation	/forceset/glmax2_l/activation	/forceset/glmax3_l/activation	/forceset/glmed1_l/activation	/forceset/glmed2_l/activation	/forceset/glmed3_l/activation	/forceset/glmin1_l/activation	/forceset/glmin2_l/activation	/forceset/glmin3_l/activation	/forceset/glmin3_l/fiber_length	/forceset/grac_l/activation	/forceset/iliacus_l/activation	/forceset/perbrev_l/activation	/forceset/perbrev_l/fiber_length	/forceset/perlong_l/activation	/forceset/perlong_l/fiber_length	/forceset/piri_l/activation	/forceset/piri_l/fiber_length	/forceset/psoas_l/activation	/forceset/recfem_l/activation	/forceset/recfem_l/fiber_length	/forceset/sart_l/activation	/forceset/semimem_l/activation	/forceset/semimem_l/fiber_length	/forceset/semiten_l/activation	/forceset/semiten_l/fiber_length	/forceset/soleus_l/activation	/forceset/soleus_l/fiber_length	/forceset/tfl_l/activation	/forceset/tfl_l/fiber_length	/forceset/tibant_l/activation	/forceset/tibant_l/fiber_length	/forceset/tibpost_l/activation	/forceset/tibpost_l/fiber_length	/forceset/vasint_l/activation	/forceset/vasint_l/fiber_length	/forceset/vaslat140_l/activation	/forceset/vaslat140_l/fiber_length	/forceset/vasmed_l/activation	/forceset/vasmed_l/fiber_length
      0.00000000	      0.00000000	      0.00000000	      0.00000000	      0.00000000	      0.00000000	      0.00000000	      0.00000000	      0.00000000	      0.93000000	      0.00000000	      0.00000000	      0.00000000	      0.00000013	      0.00000000	     -0.00000007	      0.00000000	      0.00000000	      0.00000000	      0.00279470	      0.00000000	      0.00004878	      0.00000000	     -0.00000007	      0.00000000	      0.00000000	      0.00000000	      0.00000000	      0.00000000	      0.00000013	      0.00000000	     -0.00000007	      0.00000000	      0.00000000	      0.00000000	      0.00279488	      0.00000000	      0.00004878	      0.00000000	      0.00000000	      0.00000000	      0.00000000	      0.00000000	      0.00000000	      0.00000000	      0.01000000	      0.01000000	      0.11276150	      0.01000000	      0.01000000	      0.12520855	      0.01000000	      0.01000000	      0.01000000	      0.08986785	      0.01000000	      0.01000000	      0.06923260	      0.01000000	      0.07815643	      0.01000000	      0.04540190	      0.01000000	      0.05137227	      0.01000000	      0.07348210	      0.01000000	      0.06424736	      0.01000000	      0.01000000	      0.01000000	      0.01000000	      0.01000000	      0.01000000	      0.01000000	      0.01000000	      0.01000000	      0.03799590	      0.01000000	      0.01000000	      0.01000000	      0.04853813	      0.01000000	      0.05409332	      0.01000000	      0.02336894	      0.01000000	      0.01000000	      0.06338309	      0.01000000	      0.01000000	      0.08032928	      0.01000000	      0.21263383	      0.01000000	      0.04401759	      0.01000000	      0.09877560	      0.01000000	      0.06619698	      0.01000000	      0.03920036	      0.01000000	      0.07764629	      0.01000000	      0.08033933	      0.01000000	      0.07696529	      0.01000000	      0.01000000	      0.11276150	      0.01000000	      0.01000000	      0.12520855	      0.01000000	      0.01000000	      0.01000000	      0.08986785	      0.01000000	      0.01000000	      0.06923260	      0.01000000	      0.07815643	      0.01000000	      0.04540190	      0.01000000	      0.05137227	      0.01000000	      0.07348210	      0.01000000	      0.06424736	      0.01000000	      0.01000000	      0.01000000	      0.01000000	      0.01000000	      0.01000000	      0.01000000	      0.01000000	      0.01000000	      0.03799590	      0.01000000	      0.01000000	      0.01000000	      0.04853813	      0.01000000	      0.05409332	      0.01000000	      0.02336894	      0.01000000	      0.01000000	      0.06338309	      0.01000000	      0.01000000	      0.08032928	      0.01000000	      0.21263383	      0.01000000	      0.04401759	      0.01000000	      0.09877560	      0.01000000	      0.06619698	      0.01000000	      0.03920036	      0.01000000	      0.07764629	      0.01000000	      0.08033933	      0.01000000	      0.07696529
      0.00100000	      0.00084439	      1.67737580	      0.00000000	      0.00000000	     -0.00000000	     -0.00000000	     -0.00000006	     -0.00012262	      0.92999664	     -0.00672718	      0.00000000	      0.00000000	     -0.00136067	     -2.70421922	      0.00008058	      0.16063108	     -0.00030633	     -0.61412600	      0.00118618	     -3.20100886	      0.00002070	     -0.05586814	     -0.01507190	    -30.01941287	     -0.00498227	     -9.91355645	      0.00000000	      0.00000000	     -0.00136067	     -2.70421922	      0.00008058	      0.16063108	     -0.00030633	     -0.61412600	      0.00118637	     -3.20100887	      0.00002071	     -0.05586814	     -0.01507182	    -30.01941294	     -0.00498227	     -9.91355648	     -0.00000000	     -0.00000000	      0.00987125	      0.00987125	      0.11276185	      0.00987125	      0.00987125	      0.12520827	      0.00987125	      0.00987125	      0.00987125	      0.08986780	      0.00987125	      0.00987125	      0.06923332	      0.00987125	      0.07815759	      0.00987125	      0.04540187	      0.00987125	      0.05137210	      0.00987125	      0.07348106	      0.00987125	      0.06424642	      0.00987125	      0.00987125	      0.00987125	      0.00987125	      0.00987125	      0.00987125	      0.00987125	      0.00987125	      0.00987125	      0.03799582	      0.00987125	      0.00987125	      0.00987125	      0.04853753	      0.00987125	      0.05409295	      0.00987125	      0.02336890	      0.00987125	      0.00987125	      0.06338306	      0.00987125	      0.00987125	      0.08032926	      0.00987125	      0.21263379	      0.00987125	      0.04401680	      0.00987125	      0.09877563	      0.00987125	      0.06619850	      0.00987125	      0.03920030	      0.00987125	      0.07764599	      0.00987125	      0.08033908	      0.00987125	      0.07696500	      0.00987125	      0.00987125	      0.11276185	      0.00987125	      0.00987125	      0.12520827	      0.00987125	      0.00987125	      0.00987125	      0.08986780	      0.00987125	      0.00987125	      0.06923332	      0.00987125	      0.07815759	      0.00987125	      0.04540187	      0.00987125	      0.05137210	      0.00987125	      0.07348106	      0.00987125	      0.06424642	      0.00987125	      0.00987125	      0.00987125	      0.00987125	      0.00987125	      0.00987125	      0.00987125	      0.00987125	      0.00987125	      0.03799582	      0.00987125	      0.00987125	      0.00987125	      0.04853753	      0.00987125	      0.05409295	      0.00987125	      0.02336890	      0.00987125	      0.00987125	      0.06338306	      0.00987125	      0.00987125	      0.08032926	      0.00987125	      0.21263379	      0.00987125	      0.04401680	      0.00987125	      0.09877563	      0.00987125	      0.06619850	      0.00987125	      0.03920030	      0.00987125	      0.07764599	      0.00987125	      0.08033908	      0.00987125	      0.07696500
      0.00262354	      0.00565831	      4.20594240	      0.00000000	      0.00000001	     -0.00000000	      0.00000000	     -0.00000042	     -0.00031381	      0.92997664	     -0.01799950	      0.00000000	     -0.00000000	     -0.00912025	     -6.77533710	      0.00054305	      0.40435701	     -0.00215001	     -1.67726016	     -0.00800823	     -8.02426569	     -0.00013977	     -0.14004986	     -0.10143257	    -75.42541354	     -0.03332222	    -24.59907237	      0.00000000	      0.00000000	     -0.00912025	     -6.77533709	      0.00054305	      0.40435702	     -0.00215001	     -1.67726016	     -0.00800804	     -8.02426568	     -0.00013977	     -0.14004986	     -0.10143250	    -75.42541371	     -0.03332222	    -24.59907245	      0.00000000	      0.00000000	      0.00966222	      0.00966222	      0.11276568	      0.00966222	      0.00966222	      0.12520509	      0.00966222	      0.00966222	      0.00966222	      0.08986704	      0.00966222	      0.00966222	      0.06924431	      0.00966222	      0.07817511	      0.00966222	      0.04540138	      0.00966222	      0.05136962	      0.00966222	      0.07346578	      0.00966222	      0.06423242	      0.00966222	      0.00966222	      0.00966222	      0.00966222	      0.00966222	      0.00966222	      0.00966222	      0.00966222	      0.00966222	      0.03799484	      0.00966222	      0.00966222	      0.00966222	      0.04852939	      0.00966222	      0.05408745	      0.00966222	      0.02336836	      0.00966222	      0.00966222	      0.06338254	      0.00966222	      0.00966222	      0.08032897	      0.00966222	      0.21263335	      0.00966222	      0.04400488	      0.00966222	      0.09877611	      0.00966222	      0.06622281	      0.00966222	      0.03919943	      0.00966222	      0.07764226	      0.00966222	      0.08033602	      0.00966222	      0.07696174	      0.00966222	      0.00966222	      0.11276568	      0.00966222	      0.00966222	      0.12520509	      0.00966222	      0.00966222	      0.00966222	      0.08986704	      0.00966222	      0.00966222	      0.06924431	      0.00966222	      0.07817511	      0.00966222	      0.04540138	      0.00966222	      0.05136962	      0.00966222	      0.07346578	      0.00966222	      0.06423242	      0.00966222	      0.00966222	      0.00966222	      0.00966222	      0.00966222	      0.00966222	      0.00966222	      0.00966222	      0.00966222	      0.03799484	      0.00966222	      0.00966222	      0.00966222	      0.04852939	      0.00966222	      0.05408745	      0.00966222	      0.02336836	      0.00966222	      0.00966222	      0.06338254	      0.00966222	      0.00966222	      0.08032897	      0.00966222	      0.21263335	      0.00966222	      0.04400488	      0.00966222	      0.09877611	      0.00966222	      0.06622281	      0.00966222	      0.03919943	      0.00966222	      0.07764226	      0.00966222	      0.08033602	      0.00966222	      0.07696174
      0.00357986	      0.01033460	      5.55602788	      0.00000000	      0.00000001	      0.00000000	      0.00000000	     -0.00000077	     -0.00042154	      0.92995614	     -0.02491745	      0.00000000	     -0.00000000	     -0.01664637	     -8.93339963	      0.00099225	      0.53316069	     -0.00408018	     -2.36763828	     -0.01690776	    -10.54502670	     -0.00029510	     -0.18404544	     -0.18508551	    -99.10347463	     -0.06045420	    -31.97434797	      0.00000000	      0.00000000	     -0.01664637	     -8.93339962	      0.00099225	      0.53316071	     -0.00408018	     -2.36763827	     -0.01690757	    -10.54502668	     -0.00029509	     -0.18404544	     -0.18508543	    -99.10347485	     -0.06045420	    -31.97434807	      0.00000000	      0.00000000	      0.00953909	      0.00953909	      0.11277017	      0.00953909	      0.00953909	      0.12520127	      0.00953909	      0.00953909	      0.00953909	      0.08986599	      0.00953909	      0.00953909	      0.06926164	      0.00953909	      0.07820300	      0.00953909	      0.04540062	      0.00953909	      0.05136594	      0.00953909	      0.07344368	      0.00953909	      0.06421179	      0.00953909	      0.00953909	      0.00953909	      0.00953909	      0.00953909	      0.00953909	      0.00953909	      0.00953909	      0.00953909	      0.03799363	      0.00953909	      0.00953909	      0.00953909	      0.04851844	      0.00953909	      0.05407952	      0.00953909	      0.02336758	      0.00953909	      0.00953909	      0.06338179	      0.00953909	      0.00953909	      0.08032857	      0.00953909	      0.21263285	      0.00953909	      0.04398706	      0.00953909	      0.09877679	      0.00953909	      0.06626444	      0.00953909	      0.03919814	      0.00953909	      0.07763765	      0.00953909	      0.08033223	      0.00953909	      0.07695786	      0.00953909	      0.00953909	      0.11277017	      0.00953909	      0.00953909	      0.12520127	      0.00953909	      0.00953909	      0.00953909	      0.08986599	      0.00953909	      0.00953909	      0.06926164	      0.00953909	      0.07820300	      0.00953909	      0.04540062	      0.00953909	      0.05136594	      0.00953909	      0.07344368	      0.00953909	      0.06421179	      0.00953909	      0.00953909	      0.00953909	      0.00953909	      0.00953909	      0.00953909	      0.00953909	      0.00953909	      0.00953909	      0.03799363	      0.00953909	      0.00953909	      0.00953909	      0.04851844	      0.00953909	      0.05407952	      0.00953909	      0.02336758	      0.00953909	      0.00953909	      0.06338179	      0.00953909	      0.00953909	      0.08032857	      0.00953909	      0.21263285	      0.00953909	      0.04398706	      0.00953909	      0.09877679	      0.00953909	      0.06626444	      0.00953909	      0.03919814	      0.00953909	      0.07763765	      0.00953909	      0.08033223	      0.00953909	      0.07695786
